<?xml version="1.0" standalone="no"?>
<!DOCTYPE svg PUBLIC "-//W3C//DTD SVG 20010904//EN"
 "http://www.w3.org/TR/2001/REC-SVG-20010904/DTD/svg10.dtd">
<svg version="1.0" xmlns="http://www.w3.org/2000/svg"
 width="500.000000pt" height="325.000000pt" viewBox="0 0 275.000000 183.000000"
 preserveAspectRatio="xMidYMid meet" >

<rect width="100%" height="100%" fill="white"/>


<g transform="translate(0.000000,183.000000) scale(0.100000,-0.100000)"
fill="#000000" stroke="none">
<path d="M0 915 l0 -915 629 0 629 0 13 45 c8 27 20 45 29 46 74 5 365 -4 391
-11 19 -6 49 -10 67 -10 41 0 39 -16 -8 -48 l-33 -22 517 0 516 0 0 915 0 915
-1375 0 -1375 0 0 -915z m716 823 c-1 -14 6 -24 18 -26 13 -3 16 0 11 9 -6 8
-4 10 5 4 10 -6 12 -2 7 15 -4 16 -3 20 5 12 13 -13 4 -40 -18 -49 -20 -8 -49
21 -41 41 9 22 14 20 13 -6z m-135 -21 c-10 -9 -11 -8 -5 6 3 10 9 15 12 12 3
-3 0 -11 -7 -18z m177 -80 c2 -10 -2 -24 -8 -32 -16 -19 -50 -2 -50 25 0 33
52 39 58 7z m-487 -24 c7 -18 6 -30 -1 -37 -7 -7 -10 -3 -10 11 0 12 -3 28 -6
37 -3 9 -3 16 0 16 4 0 11 -12 17 -27z m312 -15 c-2 -5 -15 -8 -29 -8 -30 0
-32 24 -1 37 17 8 23 7 28 -6 4 -9 5 -19 2 -23z m-266 -5 c-11 -10 -26 8 -20
23 5 15 7 14 15 -1 6 -9 7 -19 5 -22z m-120 5 c-3 -8 -6 -5 -6 6 -1 11 2 17 5
13 3 -3 4 -12 1 -19z m38 3 c-3 -6 -11 -8 -17 -5 -6 4 -5 9 3 15 16 10 23 4
14 -10z m134 -20 c0 -14 -3 -19 -6 -11 -2 8 -7 22 -9 30 -5 13 -6 13 -14 0 -6
-8 -10 -10 -10 -4 0 16 10 23 26 17 8 -3 14 -17 13 -32z m67 -71 c3 0 15 5 27
12 25 13 477 18 477 6 0 -5 -5 -8 -12 -8 -6 0 -9 -3 -5 -6 11 -11 47 7 48 24
1 11 4 7 9 -8 7 -22 8 -20 9 14 2 63 8 38 14 -54 4 -67 3 -76 -4 -43 -6 23
-16 47 -24 53 -13 11 -15 7 -16 -21 l-1 -34 -8 30 c-5 20 -7 3 -7 -55 0 -78 1
-81 7 -30 5 40 7 15 8 -89 2 -129 4 -142 18 -130 10 9 14 23 10 43 -3 17 1 45
9 61 9 20 14 24 14 13 1 -10 8 -18 16 -18 8 0 15 8 15 18 0 14 2 15 10 2 5 -8
10 -12 10 -8 0 3 3 14 7 24 5 13 3 15 -7 9 -10 -6 -11 -4 -4 6 19 30 15 61
-10 82 -21 19 -25 33 -30 97 -3 49 -2 65 3 45 9 -30 9 -30 11 10 1 28 4 34 8
20 10 -31 32 -29 33 2 2 28 2 28 7 3 l5 -25 8 25 c6 23 7 22 10 -10 2 -34 2
-34 9 10 l7 45 1 -51 c2 -36 7 -54 17 -58 11 -4 16 5 21 35 5 28 10 36 15 27
6 -10 9 -8 9 7 1 18 2 18 22 -5 11 -14 28 -25 37 -26 45 -3 51 -5 51 -19 0 -7
6 -18 13 -22 14 -9 17 -83 3 -83 -5 0 -6 -3 -3 -7 7 -6 -37 -33 -55 -33 -5 0
-15 6 -23 13 -43 41 -57 49 -69 37 -8 -9 -8 -14 2 -17 10 -4 8 -9 -5 -19 -17
-13 -17 -15 0 -28 17 -13 16 -14 -3 -19 -15 -4 -20 -13 -20 -37 0 -18 4 -29
10 -25 9 6 14 -8 11 -27 0 -5 3 -8 9 -8 5 0 13 12 16 27 7 25 8 25 15 8 6 -16
8 -13 8 13 1 37 21 45 21 8 0 -14 5 -28 11 -32 7 -4 9 2 7 17 -2 18 1 23 14
21 15 -2 16 1 8 23 -9 22 -7 26 8 23 9 -1 22 1 28 5 7 4 25 0 40 -8 21 -11 24
-15 11 -15 -10 0 -15 -4 -12 -10 3 -6 -4 -10 -17 -10 -17 0 -19 -3 -9 -9 8 -5
11 -16 8 -25 -5 -12 0 -16 16 -16 12 0 18 -4 12 -8 -16 -12 -16 -32 1 -32 8 0
13 -4 10 -9 -3 -4 6 -6 19 -3 14 2 25 0 25 -6 0 -6 18 -3 43 8 41 18 92 21
115 6 7 -4 12 -2 12 5 0 7 8 5 19 -7 10 -10 16 -23 13 -29 -3 -5 1 -4 10 3 14
11 18 10 27 -7 6 -11 9 -34 7 -53 -2 -18 -4 -41 -5 -50 -2 -38 -21 -16 -21 24
0 42 -14 44 -22 3 -5 -27 -22 -25 -26 3 -3 17 -8 21 -21 17 -35 -11 -90 -8
-106 5 -20 17 -104 17 -114 1 -6 -9 -43 -12 -131 -10 -110 2 -125 4 -148 24
l-26 23 -38 -25 c-24 -17 -46 -24 -63 -21 -13 3 -22 1 -19 -4 8 -13 -6 -49
-17 -42 -6 3 -8 12 -5 20 3 8 0 15 -7 16 -7 0 -16 2 -22 3 -5 2 -66 4 -135 5
-88 2 -113 5 -85 10 l40 7 -50 3 c-27 2 -69 3 -93 4 l-42 1 -1 50 c-1 28 -3
61 -4 75 -4 30 4 70 14 68 3 0 78 0 166 1 107 1 155 4 145 11 -8 5 -25 10 -37
10 -17 0 -21 4 -16 17 4 10 2 14 -4 10 -6 -4 -16 7 -23 24 l-13 31 -14 -26
c-7 -14 -16 -26 -19 -26 -3 0 -2 5 2 11 4 7 1 10 -7 7 -8 -3 -13 -10 -12 -16
1 -5 -7 -8 -20 -5 -22 5 -22 5 -2 -11 11 -10 14 -15 8 -11 -7 3 -13 2 -13 -3
0 -17 -138 4 -162 26 -10 8 -17 27 -17 41 2 23 2 23 6 4 2 -12 12 -27 21 -35
15 -12 16 -11 3 4 -7 10 -11 29 -9 43 3 16 1 22 -6 19 -6 -3 0 4 13 15 23 21
23 21 2 21 -12 0 -33 -11 -46 -25 -21 -20 -25 -34 -25 -81 0 -55 1 -56 25 -50
14 4 25 2 25 -3 0 -5 -11 -12 -25 -15 -26 -7 -36 -45 -12 -47 8 0 8 -2 -2 -6
-11 -5 -11 -7 0 -14 10 -6 11 -9 2 -9 -18 0 -16 -26 4 -46 16 -15 17 -15 24 2
5 13 8 7 8 -22 1 -22 7 -46 14 -53 10 -11 8 -12 -13 -6 -14 4 -37 9 -52 12
-25 5 -28 10 -28 45 0 23 4 37 10 33 6 -3 10 3 10 14 0 18 -7 21 -52 22 -45 1
-49 2 -23 9 l30 8 -27 1 c-21 1 -28 6 -28 21 0 16 7 20 38 22 l37 1 -38 4
c-53 6 -42 27 16 31 47 3 47 3 47 40 0 20 3 54 6 75 6 32 4 37 -12 37 -18 1
-18 1 -1 11 11 7 18 24 19 52 1 33 3 30 5 -15 2 -32 6 -58 9 -58z m1126 66
c13 -3 44 -5 71 -5 47 -1 47 -1 47 -36 0 -28 -4 -35 -20 -35 -22 0 -23 -1 -14
-24 3 -9 12 -16 20 -16 8 0 14 -9 14 -19 0 -31 11 -50 25 -44 11 4 12 -2 5
-26 -5 -18 -5 -31 0 -31 21 0 60 24 60 37 0 8 -4 12 -8 9 -14 -8 -31 9 -23 23
6 9 14 10 27 3 11 -5 68 -33 127 -62 69 -34 106 -57 103 -66 -3 -7 1 -15 9
-18 8 -3 11 -13 8 -24 -2 -11 0 -23 5 -26 6 -3 8 -15 5 -26 -4 -14 -9 -17 -17
-11 -17 13 -74 19 -117 11 -28 -5 -42 -3 -50 6 -9 11 -5 16 16 24 14 5 36 10
48 11 22 1 22 1 -1 7 -13 4 -23 10 -23 14 1 19 -12 38 -26 38 -8 0 -11 5 -7
12 5 8 2 9 -9 5 -12 -5 -17 -1 -17 12 0 12 -10 21 -26 25 -15 4 -27 6 -28 4
-1 -2 -8 -15 -15 -30 -8 -15 -18 -25 -23 -22 -4 3 -8 0 -8 -5 0 -6 -8 -19 -17
-29 -10 -10 -23 -27 -30 -38 -12 -18 -13 -18 -26 -1 -8 9 -21 17 -29 17 -45 0
-36 61 15 109 28 26 27 41 -2 41 -10 0 -26 10 -35 23 -9 12 -14 16 -11 10 4
-9 -2 -13 -19 -13 -27 0 -66 -41 -66 -71 0 -27 -20 -34 -21 -7 0 13 -3 17 -6
11 -10 -27 -33 -12 -44 30 -6 23 -16 48 -22 56 -7 8 -13 29 -13 48 -1 29 7 43
48 84 48 48 51 49 74 34 13 -8 34 -17 46 -19z m552 -12 c4 -9 2 -22 -4 -29 -5
-6 -7 -15 -3 -19 4 -3 -3 -5 -15 -3 -38 6 -46 23 -23 46 25 25 37 26 45 5z
m-1894 -36 c10 -3 8 -6 -8 -10 -18 -5 -22 -2 -22 15 0 13 3 17 8 11 4 -6 14
-13 22 -16z m1819 -4 c2 -2 -5 -4 -17 -4 -15 0 -20 -5 -16 -15 5 -11 11 -12
24 -5 25 14 30 13 30 -6 0 -9 -11 -25 -25 -36 -14 -11 -25 -26 -25 -34 0 -8
-4 -14 -10 -14 -5 0 -7 -8 -4 -17 5 -17 4 -16 -9 0 -8 10 -18 18 -21 18 -21
-3 -24 3 -20 36 3 23 0 39 -8 44 -9 6 -8 13 6 28 14 15 26 18 54 14 21 -3 39
-7 41 -9z m569 -80 c1 -16 -3 -24 -10 -22 -6 2 -48 -5 -92 -17 l-81 -21 2 -45
c1 -24 4 -53 6 -63 4 -22 27 -35 27 -16 0 6 -5 8 -12 4 -7 -4 -8 -3 -4 5 4 6
12 9 17 6 5 -4 9 -1 9 6 0 7 2 10 5 8 2 -3 1 -20 -4 -37 -6 -20 -6 -32 0 -32
5 0 9 -7 9 -16 0 -24 15 -9 74 76 60 85 84 108 40 38 -41 -65 -341 -515 -353
-530 -53 -64 -88 -109 -108 -141 -19 -31 -27 -36 -38 -27 -11 9 -16 7 -24 -8
-6 -11 -8 -22 -5 -25 12 -12 -7 -27 -24 -18 -18 10 -75 -26 -66 -41 3 -5 2 -7
-3 -6 -14 5 -11 -16 8 -55 11 -20 18 -37 15 -37 -2 0 -35 46 -72 102 -38 56
-72 107 -77 113 -5 6 -14 2 -26 -12 -11 -13 -24 -23 -30 -23 -17 0 -13 -17 14
-60 14 -22 25 -53 25 -68 0 -16 11 -59 24 -95 13 -36 21 -76 19 -90 -5 -25 -7
-25 -126 -31 -208 -10 -703 -14 -682 -6 11 4 54 13 95 20 42 7 80 20 88 28 11
14 12 14 12 0 0 -11 6 -15 20 -11 11 3 20 8 20 12 0 4 16 13 35 20 19 7 36 18
37 24 0 7 2 19 2 27 2 20 -53 89 -150 187 l-81 81 -74 0 c-41 0 -79 -4 -85 -9
-6 -5 -19 -7 -28 -3 -18 7 -22 24 -6 24 6 0 10 -6 10 -12 0 -9 4 -8 10 2 11
17 10 80 -1 80 -4 0 -9 -5 -11 -10 -2 -6 -13 -12 -26 -13 -15 -1 -22 -8 -23
-22 0 -17 -1 -17 -10 5 -8 20 -12 22 -20 10 -8 -13 -10 -13 -19 0 -8 12 -11
11 -17 -9 l-6 -25 -10 25 -9 24 -10 -25 c-10 -23 -11 -24 -17 -5 -7 24 -31 31
-31 10 0 -28 -18 -15 -26 18 l-8 32 -7 -30 c-6 -27 -7 -26 -8 15 -2 36 -4 41
-11 24 -5 -12 -14 -25 -20 -29 -8 -5 -8 -11 1 -21 10 -12 9 -13 -5 -8 -9 3
-16 10 -16 15 0 14 -24 11 -102 -15 -40 -13 -93 -27 -118 -31 -43 -6 -44 -6
-23 9 12 9 52 23 90 31 96 21 113 26 113 36 0 9 -23 6 -90 -13 -135 -38 -180
-44 -190 -28 -6 10 -15 10 -40 1 -18 -6 -37 -8 -42 -5 -12 7 -7 56 7 66 5 4
-7 8 -27 8 -21 0 -38 -4 -38 -9 0 -5 -11 -11 -25 -14 -18 -3 -31 2 -43 17 -9
12 -28 29 -42 39 -13 9 -19 17 -12 17 6 0 12 9 12 20 0 31 30 22 43 -12 3 -10
16 -18 27 -18 12 0 18 -4 15 -10 -3 -5 1 -10 10 -10 9 0 14 4 11 9 -9 13 17
29 39 24 39 -8 106 3 117 20 6 9 8 9 8 0 0 -9 8 -9 31 -1 24 8 37 8 50 -1 10
-6 31 -11 47 -11 32 0 120 27 141 44 11 8 13 8 8 -1 -5 -7 0 -9 14 -6 16 5 18
8 7 15 -9 7 -8 8 7 6 11 -2 25 -14 32 -28 8 -15 13 -19 14 -10 0 9 3 10 5 4 5
-12 99 -11 165 2 19 4 53 7 76 8 24 0 43 4 43 7 0 6 59 15 175 26 33 3 65 9
72 15 8 6 12 4 15 -8 2 -12 34 -26 111 -48 105 -31 109 -33 136 -75 l27 -44
164 -1 165 -1 -3 -32 c-5 -52 11 -38 43 38 16 38 35 75 42 81 15 12 18 32 3
23 -12 -7 -12 -3 -4 19 3 9 10 16 16 16 5 0 6 -6 2 -12 -4 -7 6 1 22 17 17 17
28 38 25 48 -2 11 5 24 17 33 11 8 22 24 24 37 2 12 8 22 13 22 17 0 35 15 35
29 0 7 -9 22 -20 34 -12 12 -17 22 -13 22 4 0 2 4 -5 9 -10 6 -12 21 -7 55 4
25 11 46 16 46 5 0 23 -9 41 -20 41 -25 48 -25 48 0 0 13 -5 18 -15 14 -8 -3
-22 2 -32 12 -17 17 -17 17 7 11 l25 -6 -25 19 c-19 15 -21 20 -9 20 9 0 19 9
22 20 3 12 14 20 26 20 24 0 25 -3 9 -30 -7 -10 -10 -22 -6 -25 7 -7 101 83
117 113 17 32 51 51 112 62 30 6 86 16 124 24 39 8 75 14 80 15 6 0 12 -11 13
-25z m-1884 -20 c3 -8 2 -12 -4 -9 -6 3 -10 10 -10 16 0 14 7 11 14 -7z m-510
-36 c-3 -4 -9 -8 -15 -8 -5 0 -9 4 -9 8 0 5 7 9 15 9 8 0 12 -4 9 -9z m1749
-18 c3 -11 1 -18 -4 -14 -5 3 -9 12 -9 20 0 20 7 17 13 -6z m-1758 -14 c14 -6
16 -10 7 -13 -10 -4 -8 -9 5 -19 16 -13 15 -13 -11 -4 -21 8 -32 8 -40 0 -8
-8 -6 -9 5 -5 10 4 28 -4 45 -19 27 -22 28 -27 17 -55 -6 -17 -8 -31 -4 -31
14 0 39 25 43 42 2 12 7 15 17 9 10 -7 11 -12 3 -22 -7 -8 -23 -27 -36 -44
-48 -60 -117 -60 -165 1 -33 41 -28 89 13 130 19 19 41 34 50 34 9 0 16 6 16
13 0 8 3 8 8 1 4 -6 16 -14 27 -18z m2036 -9 c-10 -9 -11 -8 -5 6 3 10 9 15
12 12 3 -3 0 -11 -7 -18z m212 -22 c-3 -9 -8 -14 -10 -11 -3 3 -2 9 2 15 9 16
15 13 8 -4z m-663 -161 c0 -17 -6 -37 -14 -43 -8 -7 -17 -23 -20 -36 -4 -14
-11 -25 -18 -25 -11 0 -7 58 8 94 6 16 5 17 -14 7 -20 -10 -22 -9 -22 11 0 15
10 30 28 40 25 16 28 16 40 1 6 -9 12 -31 12 -49z m-1430 20 c0 -17 -6 -24
-20 -24 -15 0 -20 7 -20 29 0 24 3 28 20 24 13 -3 20 -14 20 -29z m17 -16 c-3
-7 -5 -2 -5 12 0 14 2 19 5 13 2 -7 2 -19 0 -25z m-219 -85 c4 -26 -23 -53
-51 -52 -22 2 -22 2 1 6 12 2 27 14 33 26 10 17 8 24 -10 38 -28 23 -27 35 2
17 12 -9 23 -24 25 -35z m76 38 c3 -5 -8 -11 -24 -13 -17 -3 -30 -3 -30 -1 0
3 28 16 47 22 1 1 4 -3 7 -8z m129 -16 c4 -10 0 -10 -19 -1 -13 6 -24 14 -24
18 0 11 38 -3 43 -17z m107 -6 c6 -10 10 -22 10 -28 0 -16 -30 -41 -48 -40
-13 0 -12 3 5 11 32 15 38 40 14 60 -25 19 -27 30 -6 22 9 -4 20 -15 25 -25z
m-160 17 c0 -2 -8 -10 -17 -17 -16 -13 -17 -12 -4 4 13 16 21 21 21 13z m110
0 c0 -2 -7 -7 -16 -10 -8 -3 -12 -2 -9 4 6 10 25 14 25 6z m-290 -42 c0 -8 -9
-14 -20 -14 -11 0 -20 7 -20 16 0 8 5 12 10 9 6 -3 10 -1 10 5 0 6 5 8 10 5 6
-3 10 -13 10 -21z m94 -12 c-21 -5 -28 4 -20 24 6 16 8 15 21 -2 12 -16 12
-19 -1 -22z m107 19 c-6 -10 -8 -21 -6 -25 3 -3 0 -2 -6 3 -13 11 -5 41 11 41
7 0 8 -6 1 -19z m117 -4 c2 -12 -3 -17 -17 -17 -12 0 -21 6 -21 13 0 31 32 34
38 4z m1462 19 c0 -2 -20 -16 -45 -29 -42 -24 -45 -24 -45 -7 0 11 8 24 18 29
16 10 72 15 72 7z m70 -37 c0 -5 -4 -9 -10 -9 -5 0 -10 7 -10 16 0 8 5 12 10
9 6 -3 10 -10 10 -16z m-1286 -101 c14 -22 -2 -52 -30 -55 -15 -2 -14 -1 4 7
12 5 22 16 22 24 0 8 -10 22 -22 31 -20 14 -20 16 -4 13 10 -2 24 -11 30 -20z
m-460 0 c5 4 6 -4 4 -18 -4 -30 -42 -40 -52 -14 -9 22 13 48 29 34 6 -5 15 -6
19 -2z m65 -25 c14 -10 14 -12 -2 -18 -16 -7 -16 -8 -1 -20 22 -16 11 -45 -16
-45 -24 0 -38 26 -22 42 7 7 7 16 -1 28 -8 14 -7 22 3 35 11 14 15 14 19 4 2
-8 11 -19 20 -26z m51 -18 c0 -42 -3 -55 -15 -55 -17 0 -20 25 -5 35 6 4 5 13
-2 25 -9 14 -9 22 1 34 8 9 15 16 17 16 2 0 4 -25 4 -55z m640 35 c0 -11 -2
-20 -4 -20 -2 0 -6 9 -9 20 -3 11 -1 20 4 20 5 0 9 -9 9 -20z m-489 -11 c8
-15 8 -19 0 -15 -6 4 -11 1 -11 -6 0 -8 -5 -6 -11 5 -5 9 -7 22 -4 27 9 14 13
13 26 -11z m179 1 c0 -5 -5 -12 -11 -16 -14 -8 -33 11 -25 25 7 11 36 4 36 -9z
m-250 -45 c10 -12 10 -15 -3 -15 -8 0 -17 7 -21 15 -3 8 -2 15 3 15 5 0 14 -7
21 -15z m-192 -17 c-4 -30 -51 -33 -56 -4 -3 14 0 17 12 13 8 -3 18 -2 21 3
11 18 26 10 23 -12z m210 -15 c-10 -2 -26 -2 -35 0 -10 3 -2 5 17 5 19 0 27
-2 18 -5z m1362 -63 c-6 -11 -13 -20 -16 -20 -2 0 0 9 6 20 6 11 13 20 16 20
2 0 0 -9 -6 -20z m520 -86 c33 -6 39 -10 44 -39 10 -54 -19 -105 -60 -105 -30
0 -40 -17 -14 -25 11 -3 20 -15 20 -25 0 -10 5 -22 10 -25 22 -13 7 -25 -55
-44 -69 -22 -106 -38 -116 -52 -10 -16 -119 -67 -119 -57 0 6 -7 7 -16 4 -11
-4 -2 20 27 71 41 75 51 92 115 178 16 22 29 42 29 45 3 32 62 93 83 85 8 -3
31 -8 52 -11z m-1662 -42 c2 -7 -3 -12 -12 -12 -9 0 -16 7 -16 16 0 17 22 14
28 -4z m-533 -2 c-3 -5 -12 -10 -18 -10 -7 0 -6 4 3 10 19 12 23 12 15 0z
m499 -16 c3 -8 2 -12 -4 -9 -6 3 -10 10 -10 16 0 14 7 11 14 -7z m296 -2 c0
-5 -13 -7 -30 -4 -16 2 -30 6 -30 8 0 2 14 4 30 4 17 0 30 -4 30 -8z m1157
-69 c-3 -10 -5 -4 -5 12 0 17 2 24 5 18 2 -7 2 -21 0 -30z m-27 -54 c0 -14
-17 -10 -23 5 -4 10 -1 13 9 9 7 -3 14 -9 14 -14z m-181 -154 c0 -5 -6 1 -14
15 -8 14 -14 30 -14 35 0 6 6 -1 14 -15 8 -14 14 -29 14 -35z m-808 18 l38
-16 -26 -14 c-14 -7 -35 -13 -47 -14 -20 0 -20 -1 -1 -9 18 -8 18 -9 2 -9 -11
-1 -27 -11 -36 -23 -17 -20 -21 -20 -50 -9 -17 8 -31 15 -31 17 0 1 4 14 9 27
10 25 9 25 -22 16 -40 -11 -60 -12 -53 0 4 5 -2 7 -13 4 -10 -3 -21 0 -25 5
-5 8 26 25 84 46 26 10 132 -3 171 -21z m196 2 c18 -19 10 -47 -12 -39 -9 4
-15 3 -14 -2 4 -22 -2 -37 -10 -28 -11 11 -2 64 11 64 5 0 6 5 3 10 -9 15 5
12 22 -5z m-127 -50 c11 -13 10 -14 -4 -9 -9 3 -16 10 -16 15 0 13 6 11 20 -6z
m-40 -45 c-19 -13 -30 -13 -30 0 0 6 10 10 23 10 18 0 19 -2 7 -10z"/>
<path d="M560 1506 c14 -8 31 -11 40 -6 8 4 22 10 30 13 8 3 -10 6 -40 6 -52
0 -54 0 -30 -13z"/>
<path d="M683 1497 c12 -13 27 -23 32 -22 15 1 52 24 40 25 -6 0 -16 -5 -23
-12 -9 -9 -12 -9 -12 0 0 7 10 17 23 22 17 7 11 9 -30 9 l-52 1 22 -23z"/>
<path d="M798 1508 c26 -13 37 -46 27 -85 -6 -27 -6 -27 9 -8 8 11 16 37 16
57 0 34 3 37 33 41 17 2 1 4 -38 5 -57 0 -66 -1 -47 -10z"/>
<path d="M894 1415 c0 -49 1 -71 3 -48 2 23 2 64 0 90 -2 26 -3 8 -3 -42z"/>
<path d="M565 1410 c-18 -20 -18 -20 21 -20 26 0 34 3 25 9 -7 5 -17 14 -20
20 -5 8 -13 5 -26 -9z"/>
<path d="M1112 1345 c0 -16 2 -22 5 -12 2 9 2 23 0 30 -3 6 -5 -1 -5 -18z"/>
<path d="M1073 1335 c0 -11 4 -12 14 -4 7 6 13 13 13 15 0 2 -6 4 -13 4 -8 0
-14 -7 -14 -15z"/>
<path d="M1105 1300 c3 -5 8 -10 11 -10 2 0 4 5 4 10 0 6 -5 10 -11 10 -5 0
-7 -4 -4 -10z"/>
<path d="M830 1159 c0 -5 5 -7 10 -4 6 3 10 8 10 11 0 2 -4 4 -10 4 -5 0 -10
-5 -10 -11z"/>
<path d="M1572 1460 c0 -14 2 -19 5 -12 2 6 2 18 0 25 -3 6 -5 1 -5 -13z"/>
<path d="M1463 1378 c2 -7 10 -13 17 -13 7 0 15 6 18 13 2 7 -5 12 -18 12 -13
0 -20 -5 -17 -12z"/>
<path d="M2364 1355 c3 -23 12 -26 13 -5 1 11 -2 20 -7 20 -4 0 -7 -7 -6 -15z"/>
<path d="M2390 1334 c0 -8 5 -12 10 -9 6 4 8 11 5 16 -9 14 -15 11 -15 -7z"/>
<path d="M1270 837 c0 -7 17 -21 38 -32 39 -21 62 -39 62 -50 0 -3 9 -15 20
-27 11 -12 20 -29 20 -37 -1 -10 -13 -2 -34 22 -18 20 -37 37 -42 37 -5 0 -20
9 -34 20 -14 11 -31 20 -39 20 -8 0 -25 10 -38 22 -20 19 -35 21 -127 22 -86
1 -106 -2 -109 -14 -4 -17 -43 -24 -52 -9 -4 5 -27 8 -53 8 -46 -2 -46 -2 -12
-9 l35 -7 -34 -2 c-33 -1 -34 -2 -15 -16 10 -8 45 -22 77 -31 57 -17 57 -17
57 -55 l0 -39 84 0 83 0 69 -72 c38 -40 85 -94 103 -120 19 -27 37 -46 40 -43
2 3 -1 11 -7 17 -18 18 -14 30 8 23 11 -4 20 -2 20 4 0 6 5 11 10 11 6 0 10
-7 10 -15 0 -9 10 -15 26 -15 14 0 23 4 20 9 -6 9 22 21 61 27 33 4 61 22 74
45 15 29 -12 100 -61 159 -20 25 -44 59 -53 77 -14 26 -28 35 -84 51 -105 31
-123 34 -123 19z m-155 -120 c28 -6 63 -21 78 -34 22 -18 32 -20 53 -13 46 18
68 11 107 -35 40 -47 74 -115 57 -115 -5 0 -10 5 -10 10 0 6 -16 10 -36 10
-30 0 -35 -3 -30 -17 3 -10 -8 -2 -25 17 -116 128 -130 140 -177 151 -26 6
-55 15 -64 20 -10 5 -29 9 -43 9 -14 0 -25 5 -25 11 0 11 18 9 115 -14z m384
-113 c23 -30 28 -74 8 -74 -13 0 -57 68 -57 89 0 20 28 11 49 -15z"/>
<path d="M589 813 c-15 -7 -32 -20 -39 -28 -10 -13 -9 -15 10 -15 30 0 97 33
79 38 -8 3 -16 8 -19 11 -3 4 -17 1 -31 -6z"/>
<path d="M753 762 c-8 -5 -9 -13 -3 -22 9 -13 10 -13 11 0 0 10 3 8 9 -5 8
-18 9 -17 9 8 1 28 -5 32 -26 19z"/>
<path d="M794 754 c3 -9 6 -21 7 -27 0 -7 4 -3 9 8 5 11 9 14 9 8 1 -21 21
-14 21 7 0 15 -7 20 -26 20 -20 0 -25 -4 -20 -16z"/>
<path d="M852 746 c1 -15 6 -26 10 -26 12 0 10 38 -2 45 -6 4 -9 -5 -8 -19z"/>
<path d="M880 752 c0 -4 4 -13 9 -20 7 -11 9 -11 14 1 3 9 -1 18 -9 21 -8 3
-14 2 -14 -2z"/>
<path d="M920 730 c0 -5 5 -10 10 -10 6 0 10 5 10 10 0 6 -4 10 -10 10 -5 0
-10 -4 -10 -10z"/>
<path d="M383 713 c9 -2 23 -2 30 0 6 3 -1 5 -18 5 -16 0 -22 -2 -12 -5z"/>
<path d="M1929 558 c19 -33 31 -36 31 -7 0 11 -4 17 -10 14 -5 -3 -10 0 -10 8
0 7 -6 14 -14 14 -10 0 -10 -6 3 -29z"/>
<path d="M1710 543 c0 -4 5 -15 10 -23 8 -13 10 -13 10 2 0 9 -4 20 -10 23 -5
3 -10 3 -10 -2z"/>
<path d="M1744 450 c17 -92 29 -130 42 -130 13 0 13 4 0 28 -7 15 -17 43 -21
62 -9 42 -28 79 -21 40z"/>
<path d="M132 1275 c-23 -26 -20 -64 3 -45 7 6 17 10 21 9 37 -6 48 25 14 36
-11 4 -18 11 -15 16 11 17 -2 9 -23 -16z m28 -16 c0 -5 -4 -9 -10 -9 -5 0 -10
7 -10 16 0 8 5 12 10 9 6 -3 10 -10 10 -16z"/>
<path d="M147 1219 c7 -7 15 -10 18 -7 3 3 -2 9 -12 12 -14 6 -15 5 -6 -5z"/>
<path d="M185 1190 c-3 -6 1 -7 9 -4 18 7 21 14 7 14 -6 0 -13 -4 -16 -10z"/>
</g>


</svg>
